<svg xmlns="http://www.w3.org/2000/svg" width="375" viewBox="0 0 375 375" height="375" version="1.0"><path fill="#F5D60F" d="M 175.324219 85.042969 L 130.25 85.042969 L 130.25 139.792969 L 134.75 139.792969 L 134.75 89.542969 L 185 89.542969 L 185 85.042969 L 175.324219 85.042969"/><path fill="#F5D60F" d="M 244.742188 130.117188 L 244.742188 85.042969 L 189.992188 85.042969 L 189.992188 89.542969 L 240.242188 89.542969 L 240.242188 139.792969 L 244.742188 139.792969 L 244.742188 130.117188"/><path fill="#F5D60F" d="M 199.667969 199.535156 L 244.742188 199.535156 L 244.742188 144.785156 L 240.242188 144.785156 L 240.242188 195.035156 L 189.992188 195.035156 L 189.992188 199.535156 L 199.667969 199.535156"/><path fill="#F5D60F" d="M 130.25 154.460938 L 130.25 199.535156 L 185 199.535156 L 185 195.035156 L 134.75 195.035156 L 134.75 144.785156 L 130.25 144.785156 L 130.25 154.460938"/><g fill="#E66811"><g><g><path d="M 5.5 -38.21875 L 15.96875 -38.21875 C 20.71875 -38.21875 24.648438 -37.273438 27.765625 -35.390625 C 30.890625 -33.503906 33.164062 -31.070312 34.59375 -28.09375 C 36.019531 -25.113281 36.734375 -21.96875 36.734375 -18.65625 C 36.734375 -14.957031 35.867188 -11.6875 34.140625 -8.84375 C 32.421875 -6.007812 30.113281 -3.828125 27.21875 -2.296875 C 24.332031 -0.765625 21.195312 0 17.8125 0 L 5.5 0 Z M 16.8125 -4.96875 C 19.625 -4.96875 22.140625 -5.519531 24.359375 -6.625 C 26.585938 -7.738281 28.328125 -9.351562 29.578125 -11.46875 C 30.828125 -13.582031 31.453125 -16.101562 31.453125 -19.03125 C 31.453125 -22.019531 30.800781 -24.585938 29.5 -26.734375 C 28.195312 -28.890625 26.457031 -30.519531 24.28125 -31.625 C 22.113281 -32.738281 19.78125 -33.296875 17.28125 -33.296875 L 10.625 -33.296875 L 10.625 -4.96875 Z M 16.8125 -4.96875" transform="translate(135.573 159.743)"/></g></g></g><g fill="#E66811"><g><g><path d="M 10.625 -38.21875 L 10.625 -4.96875 L 30.078125 -4.96875 L 30.078125 0 L 5.5 0 L 5.5 -38.21875 Z M 10.625 -38.21875" transform="translate(175.423 159.743)"/></g></g></g><g fill="#E66811"><g><g><path d="M 28.171875 -38.21875 L 28.171875 -33.296875 L 10.625 -33.296875 L 10.625 -21.140625 L 26 -21.140625 L 26 -16.234375 L 10.625 -16.234375 L 10.625 0 L 5.5 0 L 5.5 -38.21875 Z M 28.171875 -38.21875" transform="translate(208.297 159.743)"/></g></g></g><g fill="#E66811"><g><g><path d="M 32.59375 -34.703125 L 17.28125 1.625 L 1.96875 -34.703125 L 7.484375 -34.703125 L 17.46875 -9.703125 L 27.125 -34.703125 Z M 32.59375 -34.703125" transform="translate(85.887 246.67)"/></g></g></g><g fill="#E66811"><g><g><path d="M 9.640625 -34.703125 L 9.640625 0 L 4.984375 0 L 4.984375 -34.703125 Z M 9.640625 -34.703125" transform="translate(120.399 246.67)"/></g></g></g><g fill="#E66811"><g><g><path d="M 23.1875 -9.125 L 9.84375 -9.125 L 6.140625 0 L 1.53125 0 L 16.703125 -36.140625 L 16.984375 -36.140625 L 32.15625 0 L 26.78125 0 Z M 21.59375 -13.15625 L 16.65625 -25.828125 L 11.515625 -13.15625 Z M 21.59375 -13.15625" transform="translate(135.039 246.67)"/></g></g></g><g fill="#E66811"><g><g><path d="M 32.203125 -2.96875 C 31.148438 -2.144531 29.492188 -1.378906 27.234375 -0.671875 C 24.984375 0.0351562 22.894531 0.390625 20.96875 0.390625 C 17.351562 0.390625 14.171875 -0.351562 11.421875 -1.84375 C 8.671875 -3.332031 6.550781 -5.375 5.0625 -7.96875 C 3.570312 -10.5625 2.828125 -13.472656 2.828125 -16.703125 C 2.828125 -20.484375 3.625 -23.753906 5.21875 -26.515625 C 6.820312 -29.285156 8.984375 -31.40625 11.703125 -32.875 C 14.429688 -34.351562 17.410156 -35.09375 20.640625 -35.09375 C 22.585938 -35.09375 24.425781 -34.859375 26.15625 -34.390625 C 27.882812 -33.929688 29.4375 -33.316406 30.8125 -32.546875 L 29.28125 -28.265625 C 28.257812 -28.847656 26.972656 -29.351562 25.421875 -29.78125 C 23.867188 -30.21875 22.46875 -30.4375 21.21875 -30.4375 C 18.53125 -30.4375 16.148438 -29.890625 14.078125 -28.796875 C 12.015625 -27.710938 10.421875 -26.160156 9.296875 -24.140625 C 8.179688 -22.128906 7.625 -19.78125 7.625 -17.09375 C 7.625 -14.59375 8.179688 -12.363281 9.296875 -10.40625 C 10.421875 -8.457031 12.007812 -6.945312 14.0625 -5.875 C 16.113281 -4.800781 18.453125 -4.265625 21.078125 -4.265625 C 22.285156 -4.265625 23.46875 -4.382812 24.625 -4.625 C 25.78125 -4.863281 26.738281 -5.207031 27.5 -5.65625 L 27.5 -12.53125 L 20.59375 -12.53125 L 20.59375 -16.984375 L 32.203125 -16.984375 Z M 32.203125 -2.96875" transform="translate(168.687 246.67)"/></g></g></g><g fill="#E66811"><g><g><path d="M 27.546875 -34.703125 L 27.546875 -30.234375 L 9.640625 -30.234375 L 9.640625 -19.6875 L 25.625 -19.6875 L 25.625 -15.21875 L 9.640625 -15.21875 L 9.640625 -4.515625 L 28.21875 -4.515625 L 28.21875 0 L 4.984375 0 L 4.984375 -34.703125 Z M 27.546875 -34.703125" transform="translate(204.783 246.67)"/></g></g></g><g fill="#E66811"><g><g><path d="M 35.234375 -34.703125 L 35.234375 1.15625 L 35.09375 1.15625 L 9.59375 -24.71875 L 9.703125 0 L 4.984375 0 L 4.984375 -35.765625 L 5.234375 -35.765625 L 30.671875 -9.59375 L 30.578125 -34.703125 Z M 35.234375 -34.703125" transform="translate(236.126 246.67)"/></g></g></g><g fill="#E66811"><g><g><path d="M 22.9375 -28.515625 C 21.695312 -29.179688 20.367188 -29.722656 18.953125 -30.140625 C 17.546875 -30.554688 16.21875 -30.765625 14.96875 -30.765625 C 13.082031 -30.765625 11.585938 -30.335938 10.484375 -29.484375 C 9.378906 -28.640625 8.828125 -27.484375 8.828125 -26.015625 C 8.828125 -24.578125 9.472656 -23.398438 10.765625 -22.484375 C 12.066406 -21.578125 13.914062 -20.675781 16.3125 -19.78125 C 18.113281 -19.132812 19.628906 -18.4375 20.859375 -17.6875 C 22.085938 -16.9375 23.109375 -15.894531 23.921875 -14.5625 C 24.742188 -13.238281 25.15625 -11.550781 25.15625 -9.5 C 25.15625 -7.644531 24.691406 -5.960938 23.765625 -4.453125 C 22.835938 -2.953125 21.515625 -1.769531 19.796875 -0.90625 C 18.085938 -0.0390625 16.082031 0.390625 13.78125 0.390625 C 11.632812 0.390625 9.566406 0.046875 7.578125 -0.640625 C 5.597656 -1.335938 3.859375 -2.210938 2.359375 -3.265625 L 4.421875 -6.953125 C 5.597656 -6.054688 7.019531 -5.296875 8.6875 -4.671875 C 10.351562 -4.054688 11.90625 -3.75 13.34375 -3.75 C 15.195312 -3.75 16.816406 -4.226562 18.203125 -5.1875 C 19.597656 -6.144531 20.296875 -7.566406 20.296875 -9.453125 C 20.296875 -11.054688 19.710938 -12.328125 18.546875 -13.265625 C 17.378906 -14.210938 15.738281 -15.101562 13.625 -15.9375 C 11.675781 -16.675781 10.050781 -17.394531 8.75 -18.09375 C 7.457031 -18.800781 6.347656 -19.769531 5.421875 -21 C 4.492188 -22.226562 4.03125 -23.769531 4.03125 -25.625 C 4.03125 -28.351562 4.984375 -30.554688 6.890625 -32.234375 C 8.796875 -33.910156 11.265625 -34.796875 14.296875 -34.890625 C 18.046875 -34.890625 21.519531 -33.960938 24.71875 -32.109375 Z M 22.9375 -28.515625" transform="translate(276.35 246.67)"/></g></g></g><g fill="#105361"><g><g><path d="M 0.765625 -1.734375 L 1.765625 -1.734375 L 1.765625 -13.65625 L 0.765625 -13.65625 L 0.765625 -15.40625 L 5.390625 -15.40625 C 5.890625 -15.40625 6.441406 -15.328125 7.046875 -15.171875 C 7.660156 -15.015625 8.226562 -14.765625 8.75 -14.421875 C 9.28125 -14.085938 9.722656 -13.65625 10.078125 -13.125 C 10.429688 -12.601562 10.609375 -11.96875 10.609375 -11.21875 C 10.609375 -9.882812 10.210938 -8.820312 9.421875 -8.03125 C 8.628906 -7.25 7.484375 -6.859375 5.984375 -6.859375 L 3.59375 -6.859375 L 3.59375 -1.734375 L 6.09375 -1.734375 L 6.09375 0 L 0.765625 0 Z M 3.59375 -8.625 L 5.5 -8.625 C 6.144531 -8.625 6.675781 -8.707031 7.09375 -8.875 C 7.507812 -9.039062 7.84375 -9.25 8.09375 -9.5 C 8.34375 -9.75 8.519531 -10.023438 8.625 -10.328125 C 8.726562 -10.640625 8.78125 -10.9375 8.78125 -11.21875 C 8.78125 -11.539062 8.691406 -11.847656 8.515625 -12.140625 C 8.347656 -12.429688 8.117188 -12.691406 7.828125 -12.921875 C 7.546875 -13.148438 7.203125 -13.328125 6.796875 -13.453125 C 6.398438 -13.585938 5.972656 -13.65625 5.515625 -13.65625 L 3.59375 -13.65625 Z M 3.59375 -8.625" transform="translate(61.181 282.415)"/></g></g></g><g fill="#105361"><g><g><path d="M 0.765625 -4.109375 C 0.765625 -4.679688 0.878906 -5.234375 1.109375 -5.765625 C 1.335938 -6.296875 1.648438 -6.757812 2.046875 -7.15625 C 2.441406 -7.550781 2.910156 -7.863281 3.453125 -8.09375 C 3.992188 -8.332031 4.570312 -8.453125 5.1875 -8.453125 C 5.582031 -8.453125 5.945312 -8.390625 6.28125 -8.265625 C 6.625 -8.148438 6.921875 -8.019531 7.171875 -7.875 C 7.421875 -7.738281 7.617188 -7.601562 7.765625 -7.46875 C 7.910156 -7.34375 7.984375 -7.257812 7.984375 -7.21875 C 7.984375 -7.375 8 -7.539062 8.03125 -7.71875 C 8.0625 -7.894531 8.078125 -8.070312 8.078125 -8.25 L 9.59375 -8.25 L 9.59375 -1.734375 L 11.265625 -1.734375 L 11.265625 0 L 7.984375 0 L 7.984375 -0.875 C 7.972656 -0.832031 7.898438 -0.753906 7.765625 -0.640625 C 7.628906 -0.523438 7.441406 -0.40625 7.203125 -0.28125 C 6.960938 -0.15625 6.671875 -0.046875 6.328125 0.046875 C 5.992188 0.148438 5.613281 0.203125 5.1875 0.203125 C 4.570312 0.203125 3.992188 0.0859375 3.453125 -0.140625 C 2.910156 -0.367188 2.441406 -0.679688 2.046875 -1.078125 C 1.648438 -1.472656 1.335938 -1.929688 1.109375 -2.453125 C 0.878906 -2.972656 0.765625 -3.523438 0.765625 -4.109375 Z M 2.625 -4.140625 C 2.625 -3.421875 2.859375 -2.8125 3.328125 -2.3125 C 3.804688 -1.820312 4.425781 -1.578125 5.1875 -1.578125 C 5.957031 -1.578125 6.578125 -1.820312 7.046875 -2.3125 C 7.523438 -2.8125 7.765625 -3.421875 7.765625 -4.140625 C 7.765625 -4.867188 7.523438 -5.472656 7.046875 -5.953125 C 6.578125 -6.429688 5.957031 -6.671875 5.1875 -6.671875 C 4.425781 -6.671875 3.804688 -6.429688 3.328125 -5.953125 C 2.859375 -5.472656 2.625 -4.867188 2.625 -4.140625 Z M 2.625 -4.140625" transform="translate(72.553 282.415)"/></g></g></g><g fill="#105361"><g><g><path d="M 0.765625 -1.734375 L 2.4375 -1.734375 L 2.4375 -6.515625 L 0.984375 -6.515625 L 0.984375 -8.25 L 4.046875 -8.25 L 4.046875 -8.046875 C 4.078125 -7.703125 4.101562 -7.382812 4.125 -7.09375 C 4.144531 -6.8125 4.171875 -6.492188 4.203125 -6.140625 C 4.378906 -6.503906 4.601562 -6.828125 4.875 -7.109375 C 5.144531 -7.398438 5.429688 -7.644531 5.734375 -7.84375 C 6.035156 -8.039062 6.328125 -8.191406 6.609375 -8.296875 C 6.898438 -8.398438 7.15625 -8.453125 7.375 -8.453125 L 7.234375 -6.640625 C 6.335938 -6.640625 5.617188 -6.390625 5.078125 -5.890625 C 4.535156 -5.390625 4.265625 -4.757812 4.265625 -4 L 4.265625 -1.734375 L 5.65625 -1.734375 L 5.65625 0 L 0.765625 0 Z M 0.765625 -1.734375" transform="translate(84.585 282.415)"/></g></g></g><g fill="#105361"><g><g><path d="M 0.765625 -4.109375 C 0.765625 -4.679688 0.878906 -5.234375 1.109375 -5.765625 C 1.335938 -6.296875 1.648438 -6.757812 2.046875 -7.15625 C 2.441406 -7.550781 2.910156 -7.863281 3.453125 -8.09375 C 3.992188 -8.332031 4.570312 -8.453125 5.1875 -8.453125 C 5.582031 -8.453125 5.945312 -8.390625 6.28125 -8.265625 C 6.625 -8.148438 6.921875 -8.019531 7.171875 -7.875 C 7.421875 -7.738281 7.617188 -7.601562 7.765625 -7.46875 C 7.910156 -7.34375 7.984375 -7.257812 7.984375 -7.21875 C 7.984375 -7.375 8 -7.539062 8.03125 -7.71875 C 8.0625 -7.894531 8.078125 -8.070312 8.078125 -8.25 L 9.59375 -8.25 L 9.59375 -1.734375 L 11.265625 -1.734375 L 11.265625 0 L 7.984375 0 L 7.984375 -0.875 C 7.972656 -0.832031 7.898438 -0.753906 7.765625 -0.640625 C 7.628906 -0.523438 7.441406 -0.40625 7.203125 -0.28125 C 6.960938 -0.15625 6.671875 -0.046875 6.328125 0.046875 C 5.992188 0.148438 5.613281 0.203125 5.1875 0.203125 C 4.570312 0.203125 3.992188 0.0859375 3.453125 -0.140625 C 2.910156 -0.367188 2.441406 -0.679688 2.046875 -1.078125 C 1.648438 -1.472656 1.335938 -1.929688 1.109375 -2.453125 C 0.878906 -2.972656 0.765625 -3.523438 0.765625 -4.109375 Z M 2.625 -4.140625 C 2.625 -3.421875 2.859375 -2.8125 3.328125 -2.3125 C 3.804688 -1.820312 4.425781 -1.578125 5.1875 -1.578125 C 5.957031 -1.578125 6.578125 -1.820312 7.046875 -2.3125 C 7.523438 -2.8125 7.765625 -3.421875 7.765625 -4.140625 C 7.765625 -4.867188 7.523438 -5.472656 7.046875 -5.953125 C 6.578125 -6.429688 5.957031 -6.671875 5.1875 -6.671875 C 4.425781 -6.671875 3.804688 -6.429688 3.328125 -5.953125 C 2.859375 -5.472656 2.625 -4.867188 2.625 -4.140625 Z M 2.625 -4.140625" transform="translate(92.723 282.415)"/></g></g></g><g fill="#105361"><g><g><path d="M 0.765625 -8.25 L 5.65625 -8.25 L 5.65625 -6.515625 L 4.515625 -6.515625 C 4.890625 -5.867188 5.253906 -5.222656 5.609375 -4.578125 C 5.960938 -3.929688 6.242188 -3.285156 6.453125 -2.640625 C 6.648438 -3.285156 6.921875 -3.929688 7.265625 -4.578125 C 7.609375 -5.222656 7.972656 -5.867188 8.359375 -6.515625 L 7.046875 -6.515625 L 7.046875 -8.25 L 12.078125 -8.25 L 12.078125 -6.515625 L 10.25 -6.515625 C 9.625 -5.328125 8.988281 -4.148438 8.34375 -2.984375 C 7.707031 -1.828125 7.078125 -0.664062 6.453125 0.5 C 5.804688 -0.664062 5.164062 -1.832031 4.53125 -3 C 3.90625 -4.164062 3.269531 -5.335938 2.625 -6.515625 L 0.765625 -6.515625 Z M 0.765625 -8.25" transform="translate(111.354 282.415)"/></g></g></g><g fill="#105361"><g><g><path d="M 0.765625 -1.734375 L 2.3125 -1.734375 L 2.3125 -6.515625 L 0.765625 -6.515625 L 0.765625 -8.25 L 4.140625 -8.25 L 4.140625 -1.734375 L 5.65625 -1.734375 L 5.65625 0 L 0.765625 0 Z M 2.109375 -11.4375 C 2.109375 -11.78125 2.222656 -12.0625 2.453125 -12.28125 C 2.691406 -12.5 2.957031 -12.609375 3.25 -12.609375 C 3.53125 -12.609375 3.785156 -12.5 4.015625 -12.28125 C 4.253906 -12.0625 4.375 -11.78125 4.375 -11.4375 C 4.375 -11.101562 4.253906 -10.828125 4.015625 -10.609375 C 3.785156 -10.398438 3.53125 -10.296875 3.25 -10.296875 C 2.957031 -10.296875 2.691406 -10.398438 2.453125 -10.609375 C 2.222656 -10.828125 2.109375 -11.101562 2.109375 -11.4375 Z M 2.109375 -11.4375" transform="translate(124.2 282.415)"/></g></g></g><g fill="#105361"><g><g><path d="M 0.765625 -4.109375 C 0.765625 -4.679688 0.878906 -5.234375 1.109375 -5.765625 C 1.335938 -6.296875 1.648438 -6.757812 2.046875 -7.15625 C 2.441406 -7.550781 2.910156 -7.863281 3.453125 -8.09375 C 3.992188 -8.332031 4.570312 -8.453125 5.1875 -8.453125 C 5.582031 -8.453125 5.945312 -8.390625 6.28125 -8.265625 C 6.625 -8.148438 6.921875 -8.019531 7.171875 -7.875 C 7.421875 -7.738281 7.617188 -7.601562 7.765625 -7.46875 C 7.910156 -7.34375 7.984375 -7.257812 7.984375 -7.21875 C 7.984375 -7.375 8 -7.539062 8.03125 -7.71875 C 8.0625 -7.894531 8.078125 -8.070312 8.078125 -8.25 L 9.59375 -8.25 L 9.59375 -1.734375 L 11.265625 -1.734375 L 11.265625 0 L 7.984375 0 L 7.984375 -0.875 C 7.972656 -0.832031 7.898438 -0.753906 7.765625 -0.640625 C 7.628906 -0.523438 7.441406 -0.40625 7.203125 -0.28125 C 6.960938 -0.15625 6.671875 -0.046875 6.328125 0.046875 C 5.992188 0.148438 5.613281 0.203125 5.1875 0.203125 C 4.570312 0.203125 3.992188 0.0859375 3.453125 -0.140625 C 2.910156 -0.367188 2.441406 -0.679688 2.046875 -1.078125 C 1.648438 -1.472656 1.335938 -1.929688 1.109375 -2.453125 C 0.878906 -2.972656 0.765625 -3.523438 0.765625 -4.109375 Z M 2.625 -4.140625 C 2.625 -3.421875 2.859375 -2.8125 3.328125 -2.3125 C 3.804688 -1.820312 4.425781 -1.578125 5.1875 -1.578125 C 5.957031 -1.578125 6.578125 -1.820312 7.046875 -2.3125 C 7.523438 -2.8125 7.765625 -3.421875 7.765625 -4.140625 C 7.765625 -4.867188 7.523438 -5.472656 7.046875 -5.953125 C 6.578125 -6.429688 5.957031 -6.671875 5.1875 -6.671875 C 4.425781 -6.671875 3.804688 -6.429688 3.328125 -5.953125 C 2.859375 -5.472656 2.625 -4.867188 2.625 -4.140625 Z M 2.625 -4.140625" transform="translate(130.623 282.415)"/></g></g></g><g fill="#105361"><g><g><path d="M 8.078125 -8.25 L 11.265625 -8.25 L 11.265625 -6.515625 L 9.59375 -6.515625 L 9.59375 1.3125 C 9.59375 1.90625 9.476562 2.453125 9.25 2.953125 C 9.019531 3.460938 8.707031 3.90625 8.3125 4.28125 C 7.914062 4.65625 7.453125 4.953125 6.921875 5.171875 C 6.398438 5.390625 5.832031 5.5 5.21875 5.5 C 4.550781 5.5 3.910156 5.351562 3.296875 5.0625 C 2.679688 4.78125 2.15625 4.488281 1.71875 4.1875 L 2.921875 2.6875 C 3.210938 2.90625 3.550781 3.113281 3.9375 3.3125 C 4.332031 3.507812 4.742188 3.609375 5.171875 3.609375 C 5.546875 3.609375 5.890625 3.539062 6.203125 3.40625 C 6.523438 3.28125 6.800781 3.101562 7.03125 2.875 C 7.269531 2.644531 7.453125 2.367188 7.578125 2.046875 C 7.703125 1.734375 7.765625 1.394531 7.765625 1.03125 L 7.765625 -0.4375 C 7.796875 -0.5 7.820312 -0.5625 7.84375 -0.625 C 7.875 -0.6875 7.90625 -0.757812 7.9375 -0.84375 C 7.894531 -0.757812 7.800781 -0.660156 7.65625 -0.546875 C 7.507812 -0.441406 7.316406 -0.332031 7.078125 -0.21875 C 6.847656 -0.113281 6.570312 -0.0234375 6.25 0.046875 C 5.9375 0.128906 5.582031 0.171875 5.1875 0.171875 C 4.570312 0.171875 3.992188 0.0625 3.453125 -0.15625 C 2.910156 -0.382812 2.441406 -0.691406 2.046875 -1.078125 C 1.648438 -1.472656 1.335938 -1.929688 1.109375 -2.453125 C 0.878906 -2.972656 0.765625 -3.523438 0.765625 -4.109375 C 0.765625 -4.679688 0.878906 -5.234375 1.109375 -5.765625 C 1.335938 -6.296875 1.648438 -6.757812 2.046875 -7.15625 C 2.441406 -7.550781 2.910156 -7.863281 3.453125 -8.09375 C 3.992188 -8.332031 4.570312 -8.453125 5.1875 -8.453125 C 5.582031 -8.453125 5.945312 -8.390625 6.28125 -8.265625 C 6.625 -8.148438 6.921875 -8.019531 7.171875 -7.875 C 7.421875 -7.738281 7.617188 -7.601562 7.765625 -7.46875 C 7.910156 -7.34375 7.984375 -7.257812 7.984375 -7.21875 C 7.984375 -7.375 8 -7.539062 8.03125 -7.71875 C 8.0625 -7.894531 8.078125 -8.070312 8.078125 -8.25 Z M 2.625 -4.140625 C 2.625 -3.421875 2.859375 -2.8125 3.328125 -2.3125 C 3.804688 -1.820312 4.425781 -1.578125 5.1875 -1.578125 C 5.957031 -1.578125 6.578125 -1.820312 7.046875 -2.3125 C 7.523438 -2.8125 7.765625 -3.421875 7.765625 -4.140625 C 7.765625 -4.867188 7.523438 -5.472656 7.046875 -5.953125 C 6.578125 -6.429688 5.957031 -6.671875 5.1875 -6.671875 C 4.425781 -6.671875 3.804688 -6.429688 3.328125 -5.953125 C 2.859375 -5.472656 2.625 -4.867188 2.625 -4.140625 Z M 2.625 -4.140625" transform="translate(142.654 282.415)"/></g></g></g><g fill="#105361"><g><g><path d="M 5.171875 -6.671875 C 4.421875 -6.671875 3.8125 -6.445312 3.34375 -6 C 2.875 -5.550781 2.625 -4.988281 2.59375 -4.3125 C 3.28125 -4.5625 3.960938 -4.8125 4.640625 -5.0625 C 5.328125 -5.320312 6.015625 -5.578125 6.703125 -5.828125 C 6.503906 -6.078125 6.273438 -6.28125 6.015625 -6.4375 C 5.753906 -6.59375 5.472656 -6.671875 5.171875 -6.671875 Z M 9.046875 -4.796875 C 8.046875 -4.429688 7.050781 -4.0625 6.0625 -3.6875 C 5.070312 -3.320312 4.078125 -2.957031 3.078125 -2.59375 C 3.296875 -2.289062 3.582031 -2.046875 3.9375 -1.859375 C 4.300781 -1.671875 4.710938 -1.578125 5.171875 -1.578125 C 5.847656 -1.578125 6.40625 -1.8125 6.84375 -2.28125 L 7.96875 -0.96875 C 7.59375 -0.601562 7.171875 -0.316406 6.703125 -0.109375 C 6.234375 0.0976562 5.722656 0.203125 5.171875 0.203125 C 4.554688 0.203125 3.976562 0.0859375 3.4375 -0.140625 C 2.90625 -0.367188 2.441406 -0.679688 2.046875 -1.078125 C 1.648438 -1.472656 1.335938 -1.929688 1.109375 -2.453125 C 0.878906 -2.972656 0.765625 -3.535156 0.765625 -4.140625 C 0.765625 -4.722656 0.878906 -5.273438 1.109375 -5.796875 C 1.335938 -6.328125 1.648438 -6.785156 2.046875 -7.171875 C 2.441406 -7.566406 2.90625 -7.878906 3.4375 -8.109375 C 3.976562 -8.335938 4.554688 -8.453125 5.171875 -8.453125 C 5.628906 -8.453125 6.066406 -8.359375 6.484375 -8.171875 C 6.898438 -7.984375 7.269531 -7.726562 7.59375 -7.40625 C 7.925781 -7.09375 8.21875 -6.710938 8.46875 -6.265625 C 8.71875 -5.816406 8.910156 -5.328125 9.046875 -4.796875 Z M 9.046875 -4.796875" transform="translate(154.686 282.415)"/></g></g></g><g fill="#105361"><g><g><path d="M 7.109375 -1.734375 L 8.796875 -1.734375 L 8.796875 -5.140625 C 8.765625 -5.535156 8.617188 -5.875 8.359375 -6.15625 C 8.109375 -6.445312 7.707031 -6.609375 7.15625 -6.640625 C 6.769531 -6.640625 6.40625 -6.570312 6.0625 -6.4375 C 5.71875 -6.3125 5.410156 -6.128906 5.140625 -5.890625 C 4.878906 -5.660156 4.664062 -5.382812 4.5 -5.0625 C 4.34375 -4.738281 4.265625 -4.382812 4.265625 -4 L 4.265625 -1.734375 L 5.65625 -1.734375 L 5.65625 0 L 0.765625 0 L 0.765625 -1.734375 L 2.4375 -1.734375 L 2.4375 -6.515625 L 0.984375 -6.515625 L 0.984375 -8.25 L 4.046875 -8.25 L 4.046875 -8.046875 C 4.078125 -7.703125 4.101562 -7.382812 4.125 -7.09375 C 4.144531 -6.8125 4.171875 -6.492188 4.203125 -6.140625 C 4.492188 -6.835938 4.960938 -7.394531 5.609375 -7.8125 C 6.265625 -8.238281 6.988281 -8.453125 7.78125 -8.453125 C 8.65625 -8.453125 9.335938 -8.222656 9.828125 -7.765625 C 10.328125 -7.304688 10.59375 -6.710938 10.625 -5.984375 L 10.625 -1.734375 L 11.984375 -1.734375 L 11.984375 0 L 7.109375 0 Z M 7.109375 -1.734375" transform="translate(164.585 282.415)"/></g></g></g><g fill="#105361"><g><g><path d="M 2.65625 -2.640625 L 2.65625 -1.78125 C 2.832031 -1.707031 3.003906 -1.660156 3.171875 -1.640625 C 3.347656 -1.617188 3.5625 -1.609375 3.8125 -1.609375 C 3.820312 -1.609375 3.875 -1.609375 3.96875 -1.609375 C 4.0625 -1.617188 4.164062 -1.648438 4.28125 -1.703125 C 4.40625 -1.753906 4.515625 -1.832031 4.609375 -1.9375 C 4.703125 -2.039062 4.757812 -2.191406 4.78125 -2.390625 C 4.789062 -2.660156 4.710938 -2.863281 4.546875 -3 C 4.390625 -3.144531 4.179688 -3.265625 3.921875 -3.359375 C 3.671875 -3.453125 3.390625 -3.546875 3.078125 -3.640625 C 2.773438 -3.734375 2.484375 -3.863281 2.203125 -4.03125 C 1.929688 -4.207031 1.707031 -4.445312 1.53125 -4.75 C 1.363281 -5.0625 1.28125 -5.472656 1.28125 -5.984375 C 1.28125 -6.441406 1.363281 -6.820312 1.53125 -7.125 C 1.707031 -7.4375 1.925781 -7.691406 2.1875 -7.890625 C 2.457031 -8.085938 2.742188 -8.226562 3.046875 -8.3125 C 3.359375 -8.40625 3.640625 -8.453125 3.890625 -8.453125 C 4.035156 -8.453125 4.210938 -8.4375 4.421875 -8.40625 C 4.640625 -8.375 4.859375 -8.320312 5.078125 -8.25 C 5.296875 -8.175781 5.507812 -8.078125 5.71875 -7.953125 C 5.9375 -7.835938 6.128906 -7.695312 6.296875 -7.53125 L 6.296875 -5.609375 L 4.65625 -5.609375 L 4.65625 -6.5625 C 4.4375 -6.632812 4.21875 -6.671875 4 -6.671875 C 3.675781 -6.671875 3.441406 -6.597656 3.296875 -6.453125 C 3.148438 -6.316406 3.09375 -6.128906 3.125 -5.890625 C 3.15625 -5.710938 3.265625 -5.566406 3.453125 -5.453125 C 3.640625 -5.347656 3.863281 -5.242188 4.125 -5.140625 C 4.382812 -5.046875 4.660156 -4.929688 4.953125 -4.796875 C 5.242188 -4.660156 5.515625 -4.492188 5.765625 -4.296875 C 6.015625 -4.097656 6.21875 -3.847656 6.375 -3.546875 C 6.539062 -3.253906 6.625 -2.878906 6.625 -2.421875 C 6.625 -2.210938 6.582031 -1.960938 6.5 -1.671875 C 6.414062 -1.378906 6.269531 -1.09375 6.0625 -0.8125 C 5.863281 -0.53125 5.578125 -0.296875 5.203125 -0.109375 C 4.835938 0.078125 4.363281 0.171875 3.78125 0.171875 C 3.238281 0.171875 2.71875 0.101562 2.21875 -0.03125 C 1.71875 -0.164062 1.320312 -0.394531 1.03125 -0.71875 L 1.03125 -2.640625 Z M 2.65625 -2.640625" transform="translate(177.342 282.415)"/></g></g></g><g fill="#105361"><g><g><path d="M 0.765625 -1.734375 L 2.3125 -1.734375 L 2.3125 -6.515625 L 0.765625 -6.515625 L 0.765625 -8.25 L 4.140625 -8.25 L 4.140625 -1.734375 L 5.65625 -1.734375 L 5.65625 0 L 0.765625 0 Z M 2.109375 -11.4375 C 2.109375 -11.78125 2.222656 -12.0625 2.453125 -12.28125 C 2.691406 -12.5 2.957031 -12.609375 3.25 -12.609375 C 3.53125 -12.609375 3.785156 -12.5 4.015625 -12.28125 C 4.253906 -12.0625 4.375 -11.78125 4.375 -11.4375 C 4.375 -11.101562 4.253906 -10.828125 4.015625 -10.609375 C 3.785156 -10.398438 3.53125 -10.296875 3.25 -10.296875 C 2.957031 -10.296875 2.691406 -10.398438 2.453125 -10.609375 C 2.222656 -10.828125 2.109375 -11.101562 2.109375 -11.4375 Z M 2.109375 -11.4375" transform="translate(191.244 282.415)"/></g></g></g><g fill="#105361"><g><g><path d="M 7.109375 -1.734375 L 8.796875 -1.734375 L 8.796875 -5.140625 C 8.765625 -5.535156 8.617188 -5.875 8.359375 -6.15625 C 8.109375 -6.445312 7.707031 -6.609375 7.15625 -6.640625 C 6.769531 -6.640625 6.40625 -6.570312 6.0625 -6.4375 C 5.71875 -6.3125 5.410156 -6.128906 5.140625 -5.890625 C 4.878906 -5.660156 4.664062 -5.382812 4.5 -5.0625 C 4.34375 -4.738281 4.265625 -4.382812 4.265625 -4 L 4.265625 -1.734375 L 5.65625 -1.734375 L 5.65625 0 L 0.765625 0 L 0.765625 -1.734375 L 2.4375 -1.734375 L 2.4375 -6.515625 L 0.984375 -6.515625 L 0.984375 -8.25 L 4.046875 -8.25 L 4.046875 -8.046875 C 4.078125 -7.703125 4.101562 -7.382812 4.125 -7.09375 C 4.144531 -6.8125 4.171875 -6.492188 4.203125 -6.140625 C 4.492188 -6.835938 4.960938 -7.394531 5.609375 -7.8125 C 6.265625 -8.238281 6.988281 -8.453125 7.78125 -8.453125 C 8.65625 -8.453125 9.335938 -8.222656 9.828125 -7.765625 C 10.328125 -7.304688 10.59375 -6.710938 10.625 -5.984375 L 10.625 -1.734375 L 11.984375 -1.734375 L 11.984375 0 L 7.109375 0 Z M 7.109375 -1.734375" transform="translate(197.667 282.415)"/></g></g></g><g fill="#105361"><g><g><path d="M 5.171875 -6.671875 C 4.421875 -6.671875 3.8125 -6.445312 3.34375 -6 C 2.875 -5.550781 2.625 -4.988281 2.59375 -4.3125 C 3.28125 -4.5625 3.960938 -4.8125 4.640625 -5.0625 C 5.328125 -5.320312 6.015625 -5.578125 6.703125 -5.828125 C 6.503906 -6.078125 6.273438 -6.28125 6.015625 -6.4375 C 5.753906 -6.59375 5.472656 -6.671875 5.171875 -6.671875 Z M 9.046875 -4.796875 C 8.046875 -4.429688 7.050781 -4.0625 6.0625 -3.6875 C 5.070312 -3.320312 4.078125 -2.957031 3.078125 -2.59375 C 3.296875 -2.289062 3.582031 -2.046875 3.9375 -1.859375 C 4.300781 -1.671875 4.710938 -1.578125 5.171875 -1.578125 C 5.847656 -1.578125 6.40625 -1.8125 6.84375 -2.28125 L 7.96875 -0.96875 C 7.59375 -0.601562 7.171875 -0.316406 6.703125 -0.109375 C 6.234375 0.0976562 5.722656 0.203125 5.171875 0.203125 C 4.554688 0.203125 3.976562 0.0859375 3.4375 -0.140625 C 2.90625 -0.367188 2.441406 -0.679688 2.046875 -1.078125 C 1.648438 -1.472656 1.335938 -1.929688 1.109375 -2.453125 C 0.878906 -2.972656 0.765625 -3.535156 0.765625 -4.140625 C 0.765625 -4.722656 0.878906 -5.273438 1.109375 -5.796875 C 1.335938 -6.328125 1.648438 -6.785156 2.046875 -7.171875 C 2.441406 -7.566406 2.90625 -7.878906 3.4375 -8.109375 C 3.976562 -8.335938 4.554688 -8.453125 5.171875 -8.453125 C 5.628906 -8.453125 6.066406 -8.359375 6.484375 -8.171875 C 6.898438 -7.984375 7.269531 -7.726562 7.59375 -7.40625 C 7.925781 -7.09375 8.21875 -6.710938 8.46875 -6.265625 C 8.71875 -5.816406 8.910156 -5.328125 9.046875 -4.796875 Z M 9.046875 -4.796875" transform="translate(210.424 282.415)"/></g></g></g><g fill="#105361"><g><g><path d="M 2.65625 -2.640625 L 2.65625 -1.78125 C 2.832031 -1.707031 3.003906 -1.660156 3.171875 -1.640625 C 3.347656 -1.617188 3.5625 -1.609375 3.8125 -1.609375 C 3.820312 -1.609375 3.875 -1.609375 3.96875 -1.609375 C 4.0625 -1.617188 4.164062 -1.648438 4.28125 -1.703125 C 4.40625 -1.753906 4.515625 -1.832031 4.609375 -1.9375 C 4.703125 -2.039062 4.757812 -2.191406 4.78125 -2.390625 C 4.789062 -2.660156 4.710938 -2.863281 4.546875 -3 C 4.390625 -3.144531 4.179688 -3.265625 3.921875 -3.359375 C 3.671875 -3.453125 3.390625 -3.546875 3.078125 -3.640625 C 2.773438 -3.734375 2.484375 -3.863281 2.203125 -4.03125 C 1.929688 -4.207031 1.707031 -4.445312 1.53125 -4.75 C 1.363281 -5.0625 1.28125 -5.472656 1.28125 -5.984375 C 1.28125 -6.441406 1.363281 -6.820312 1.53125 -7.125 C 1.707031 -7.4375 1.925781 -7.691406 2.1875 -7.890625 C 2.457031 -8.085938 2.742188 -8.226562 3.046875 -8.3125 C 3.359375 -8.40625 3.640625 -8.453125 3.890625 -8.453125 C 4.035156 -8.453125 4.210938 -8.4375 4.421875 -8.40625 C 4.640625 -8.375 4.859375 -8.320312 5.078125 -8.25 C 5.296875 -8.175781 5.507812 -8.078125 5.71875 -7.953125 C 5.9375 -7.835938 6.128906 -7.695312 6.296875 -7.53125 L 6.296875 -5.609375 L 4.65625 -5.609375 L 4.65625 -6.5625 C 4.4375 -6.632812 4.21875 -6.671875 4 -6.671875 C 3.675781 -6.671875 3.441406 -6.597656 3.296875 -6.453125 C 3.148438 -6.316406 3.09375 -6.128906 3.125 -5.890625 C 3.15625 -5.710938 3.265625 -5.566406 3.453125 -5.453125 C 3.640625 -5.347656 3.863281 -5.242188 4.125 -5.140625 C 4.382812 -5.046875 4.660156 -4.929688 4.953125 -4.796875 C 5.242188 -4.660156 5.515625 -4.492188 5.765625 -4.296875 C 6.015625 -4.097656 6.21875 -3.847656 6.375 -3.546875 C 6.539062 -3.253906 6.625 -2.878906 6.625 -2.421875 C 6.625 -2.210938 6.582031 -1.960938 6.5 -1.671875 C 6.414062 -1.378906 6.269531 -1.09375 6.0625 -0.8125 C 5.863281 -0.53125 5.578125 -0.296875 5.203125 -0.109375 C 4.835938 0.078125 4.363281 0.171875 3.78125 0.171875 C 3.238281 0.171875 2.71875 0.101562 2.21875 -0.03125 C 1.71875 -0.164062 1.320312 -0.394531 1.03125 -0.71875 L 1.03125 -2.640625 Z M 2.65625 -2.640625" transform="translate(220.323 282.415)"/></g></g></g><g fill="#105361"><g><g><path d="M 6.09375 3.765625 L 7.765625 3.765625 L 7.765625 -0.421875 C 7.796875 -0.492188 7.828125 -0.5625 7.859375 -0.625 C 7.898438 -0.6875 7.9375 -0.757812 7.96875 -0.84375 C 7.914062 -0.78125 7.816406 -0.691406 7.671875 -0.578125 C 7.523438 -0.472656 7.332031 -0.359375 7.09375 -0.234375 C 6.863281 -0.117188 6.585938 -0.0195312 6.265625 0.0625 C 5.941406 0.15625 5.582031 0.203125 5.1875 0.203125 C 4.570312 0.203125 3.992188 0.0859375 3.453125 -0.140625 C 2.910156 -0.367188 2.441406 -0.679688 2.046875 -1.078125 C 1.648438 -1.472656 1.335938 -1.929688 1.109375 -2.453125 C 0.878906 -2.984375 0.765625 -3.546875 0.765625 -4.140625 C 0.765625 -4.722656 0.878906 -5.273438 1.109375 -5.796875 C 1.335938 -6.316406 1.648438 -6.773438 2.046875 -7.171875 C 2.441406 -7.566406 2.910156 -7.878906 3.453125 -8.109375 C 3.992188 -8.335938 4.570312 -8.453125 5.1875 -8.453125 C 5.570312 -8.453125 5.925781 -8.394531 6.25 -8.28125 C 6.582031 -8.175781 6.875 -8.050781 7.125 -7.90625 C 7.375 -7.769531 7.570312 -7.628906 7.71875 -7.484375 C 7.863281 -7.347656 7.953125 -7.257812 7.984375 -7.21875 C 7.984375 -7.375 8 -7.539062 8.03125 -7.71875 C 8.0625 -7.894531 8.078125 -8.070312 8.078125 -8.25 L 11.359375 -8.25 L 11.359375 -6.515625 L 9.59375 -6.515625 L 9.59375 3.765625 L 10.984375 3.765625 L 10.984375 5.5 L 6.09375 5.5 Z M 2.625 -4.140625 C 2.625 -3.421875 2.859375 -2.8125 3.328125 -2.3125 C 3.804688 -1.820312 4.425781 -1.578125 5.1875 -1.578125 C 5.957031 -1.578125 6.578125 -1.820312 7.046875 -2.3125 C 7.523438 -2.8125 7.765625 -3.421875 7.765625 -4.140625 C 7.765625 -4.867188 7.523438 -5.472656 7.046875 -5.953125 C 6.578125 -6.429688 5.957031 -6.671875 5.1875 -6.671875 C 4.425781 -6.671875 3.804688 -6.429688 3.328125 -5.953125 C 2.859375 -5.472656 2.625 -4.867188 2.625 -4.140625 Z M 2.625 -4.140625" transform="translate(227.625 282.415)"/></g></g></g><g fill="#105361"><g><g><path d="M 0.765625 -8.25 L 4.046875 -8.25 L 4.046875 -3.109375 C 4.078125 -2.710938 4.21875 -2.367188 4.46875 -2.078125 C 4.726562 -1.796875 5.140625 -1.640625 5.703125 -1.609375 C 6.078125 -1.609375 6.4375 -1.671875 6.78125 -1.796875 C 7.125 -1.929688 7.425781 -2.113281 7.6875 -2.34375 C 7.957031 -2.582031 8.171875 -2.863281 8.328125 -3.1875 C 8.492188 -3.507812 8.578125 -3.863281 8.578125 -4.25 L 8.578125 -6.515625 L 7.125 -6.515625 L 7.125 -8.25 L 10.40625 -8.25 L 10.40625 -1.546875 L 11.765625 -1.546875 L 11.765625 0 L 8.578125 0 L 8.578125 -1.125 L 8.640625 -2.109375 C 8.347656 -1.410156 7.875 -0.847656 7.21875 -0.421875 C 6.570312 -0.00390625 5.851562 0.203125 5.0625 0.203125 C 4.195312 0.203125 3.515625 -0.0234375 3.015625 -0.484375 C 2.515625 -0.941406 2.25 -1.535156 2.21875 -2.265625 L 2.21875 -6.515625 L 0.765625 -6.515625 Z M 0.765625 -8.25" transform="translate(239.745 282.415)"/></g></g></g><g fill="#105361"><g><g><path d="M 5.171875 -6.671875 C 4.421875 -6.671875 3.8125 -6.445312 3.34375 -6 C 2.875 -5.550781 2.625 -4.988281 2.59375 -4.3125 C 3.28125 -4.5625 3.960938 -4.8125 4.640625 -5.0625 C 5.328125 -5.320312 6.015625 -5.578125 6.703125 -5.828125 C 6.503906 -6.078125 6.273438 -6.28125 6.015625 -6.4375 C 5.753906 -6.59375 5.472656 -6.671875 5.171875 -6.671875 Z M 9.046875 -4.796875 C 8.046875 -4.429688 7.050781 -4.0625 6.0625 -3.6875 C 5.070312 -3.320312 4.078125 -2.957031 3.078125 -2.59375 C 3.296875 -2.289062 3.582031 -2.046875 3.9375 -1.859375 C 4.300781 -1.671875 4.710938 -1.578125 5.171875 -1.578125 C 5.847656 -1.578125 6.40625 -1.8125 6.84375 -2.28125 L 7.96875 -0.96875 C 7.59375 -0.601562 7.171875 -0.316406 6.703125 -0.109375 C 6.234375 0.0976562 5.722656 0.203125 5.171875 0.203125 C 4.554688 0.203125 3.976562 0.0859375 3.4375 -0.140625 C 2.90625 -0.367188 2.441406 -0.679688 2.046875 -1.078125 C 1.648438 -1.472656 1.335938 -1.929688 1.109375 -2.453125 C 0.878906 -2.972656 0.765625 -3.535156 0.765625 -4.140625 C 0.765625 -4.722656 0.878906 -5.273438 1.109375 -5.796875 C 1.335938 -6.328125 1.648438 -6.785156 2.046875 -7.171875 C 2.441406 -7.566406 2.90625 -7.878906 3.4375 -8.109375 C 3.976562 -8.335938 4.554688 -8.453125 5.171875 -8.453125 C 5.628906 -8.453125 6.066406 -8.359375 6.484375 -8.171875 C 6.898438 -7.984375 7.269531 -7.726562 7.59375 -7.40625 C 7.925781 -7.09375 8.21875 -6.710938 8.46875 -6.265625 C 8.71875 -5.816406 8.910156 -5.328125 9.046875 -4.796875 Z M 9.046875 -4.796875" transform="translate(252.283 282.415)"/></g></g></g><g fill="#105361"><g><g><path d="M 7.921875 -0.75 C 7.535156 -0.457031 7.113281 -0.222656 6.65625 -0.046875 C 6.195312 0.117188 5.703125 0.203125 5.171875 0.203125 C 4.554688 0.203125 3.976562 0.0859375 3.4375 -0.140625 C 2.90625 -0.367188 2.441406 -0.679688 2.046875 -1.078125 C 1.648438 -1.472656 1.335938 -1.929688 1.109375 -2.453125 C 0.878906 -2.972656 0.765625 -3.535156 0.765625 -4.140625 C 0.765625 -4.722656 0.878906 -5.273438 1.109375 -5.796875 C 1.335938 -6.328125 1.648438 -6.785156 2.046875 -7.171875 C 2.441406 -7.566406 2.90625 -7.878906 3.4375 -8.109375 C 3.976562 -8.335938 4.554688 -8.453125 5.171875 -8.453125 C 5.710938 -8.453125 6.21875 -8.363281 6.6875 -8.1875 C 7.15625 -8.019531 7.582031 -7.789062 7.96875 -7.5 L 7.96875 -4.953125 L 6.34375 -4.953125 L 6.34375 -6.421875 C 5.96875 -6.585938 5.578125 -6.671875 5.171875 -6.671875 C 4.410156 -6.671875 3.789062 -6.429688 3.3125 -5.953125 C 2.832031 -5.472656 2.59375 -4.867188 2.59375 -4.140625 C 2.59375 -3.421875 2.832031 -2.8125 3.3125 -2.3125 C 3.789062 -1.820312 4.410156 -1.578125 5.171875 -1.578125 C 5.816406 -1.578125 6.363281 -1.765625 6.8125 -2.140625 Z M 7.921875 -0.75" transform="translate(262.181 282.415)"/></g></g></g><g fill="#105361"><g><g><path d="M 0.765625 -1.734375 L 2.3125 -1.734375 L 2.3125 -6.515625 L 0.765625 -6.515625 L 0.765625 -8.25 L 4.140625 -8.25 L 4.140625 -1.734375 L 5.65625 -1.734375 L 5.65625 0 L 0.765625 0 Z M 2.203125 -10.53125 C 2.535156 -11.019531 2.863281 -11.507812 3.1875 -12 C 3.507812 -12.488281 3.84375 -12.976562 4.1875 -13.46875 L 6.03125 -13.46875 C 5.601562 -12.976562 5.179688 -12.488281 4.765625 -12 C 4.347656 -11.507812 3.925781 -11.019531 3.5 -10.53125 Z M 2.203125 -10.53125" transform="translate(270.914 282.415)"/></g></g></g><g fill="#105361"><g><g><path d="M 0.765625 -8.25 L 5.65625 -8.25 L 5.65625 -6.515625 L 4.515625 -6.515625 C 4.890625 -5.867188 5.253906 -5.222656 5.609375 -4.578125 C 5.960938 -3.929688 6.242188 -3.285156 6.453125 -2.640625 C 6.648438 -3.285156 6.921875 -3.929688 7.265625 -4.578125 C 7.609375 -5.222656 7.972656 -5.867188 8.359375 -6.515625 L 7.046875 -6.515625 L 7.046875 -8.25 L 12.078125 -8.25 L 12.078125 -6.515625 L 10.25 -6.515625 C 9.625 -5.328125 8.988281 -4.148438 8.34375 -2.984375 C 7.707031 -1.828125 7.078125 -0.664062 6.453125 0.5 C 5.804688 -0.664062 5.164062 -1.832031 4.53125 -3 C 3.90625 -4.164062 3.269531 -5.335938 2.625 -6.515625 L 0.765625 -6.515625 Z M 0.765625 -8.25" transform="translate(277.336 282.415)"/></g></g></g><g fill="#105361"><g><g><path d="M 5.171875 -6.671875 C 4.421875 -6.671875 3.8125 -6.445312 3.34375 -6 C 2.875 -5.550781 2.625 -4.988281 2.59375 -4.3125 C 3.28125 -4.5625 3.960938 -4.8125 4.640625 -5.0625 C 5.328125 -5.320312 6.015625 -5.578125 6.703125 -5.828125 C 6.503906 -6.078125 6.273438 -6.28125 6.015625 -6.4375 C 5.753906 -6.59375 5.472656 -6.671875 5.171875 -6.671875 Z M 9.046875 -4.796875 C 8.046875 -4.429688 7.050781 -4.0625 6.0625 -3.6875 C 5.070312 -3.320312 4.078125 -2.957031 3.078125 -2.59375 C 3.296875 -2.289062 3.582031 -2.046875 3.9375 -1.859375 C 4.300781 -1.671875 4.710938 -1.578125 5.171875 -1.578125 C 5.847656 -1.578125 6.40625 -1.8125 6.84375 -2.28125 L 7.96875 -0.96875 C 7.59375 -0.601562 7.171875 -0.316406 6.703125 -0.109375 C 6.234375 0.0976562 5.722656 0.203125 5.171875 0.203125 C 4.554688 0.203125 3.976562 0.0859375 3.4375 -0.140625 C 2.90625 -0.367188 2.441406 -0.679688 2.046875 -1.078125 C 1.648438 -1.472656 1.335938 -1.929688 1.109375 -2.453125 C 0.878906 -2.972656 0.765625 -3.535156 0.765625 -4.140625 C 0.765625 -4.722656 0.878906 -5.273438 1.109375 -5.796875 C 1.335938 -6.328125 1.648438 -6.785156 2.046875 -7.171875 C 2.441406 -7.566406 2.90625 -7.878906 3.4375 -8.109375 C 3.976562 -8.335938 4.554688 -8.453125 5.171875 -8.453125 C 5.628906 -8.453125 6.066406 -8.359375 6.484375 -8.171875 C 6.898438 -7.984375 7.269531 -7.726562 7.59375 -7.40625 C 7.925781 -7.09375 8.21875 -6.710938 8.46875 -6.265625 C 8.71875 -5.816406 8.910156 -5.328125 9.046875 -4.796875 Z M 9.046875 -4.796875" transform="translate(290.182 282.415)"/></g></g></g><g fill="#105361"><g><g><path d="M 0.765625 -1.734375 L 2.3125 -1.734375 L 2.3125 -6.515625 L 0.765625 -6.515625 L 0.765625 -8.25 L 4.140625 -8.25 L 4.140625 -1.734375 L 5.65625 -1.734375 L 5.65625 0 L 0.765625 0 Z M 2.109375 -11.4375 C 2.109375 -11.78125 2.222656 -12.0625 2.453125 -12.28125 C 2.691406 -12.5 2.957031 -12.609375 3.25 -12.609375 C 3.53125 -12.609375 3.785156 -12.5 4.015625 -12.28125 C 4.253906 -12.0625 4.375 -11.78125 4.375 -11.4375 C 4.375 -11.101562 4.253906 -10.828125 4.015625 -10.609375 C 3.785156 -10.398438 3.53125 -10.296875 3.25 -10.296875 C 2.957031 -10.296875 2.691406 -10.398438 2.453125 -10.609375 C 2.222656 -10.828125 2.109375 -11.101562 2.109375 -11.4375 Z M 2.109375 -11.4375" transform="translate(300.08 282.415)"/></g></g></g><g fill="#105361"><g><g><path d="M 2.65625 -2.640625 L 2.65625 -1.78125 C 2.832031 -1.707031 3.003906 -1.660156 3.171875 -1.640625 C 3.347656 -1.617188 3.5625 -1.609375 3.8125 -1.609375 C 3.820312 -1.609375 3.875 -1.609375 3.96875 -1.609375 C 4.0625 -1.617188 4.164062 -1.648438 4.28125 -1.703125 C 4.40625 -1.753906 4.515625 -1.832031 4.609375 -1.9375 C 4.703125 -2.039062 4.757812 -2.191406 4.78125 -2.390625 C 4.789062 -2.660156 4.710938 -2.863281 4.546875 -3 C 4.390625 -3.144531 4.179688 -3.265625 3.921875 -3.359375 C 3.671875 -3.453125 3.390625 -3.546875 3.078125 -3.640625 C 2.773438 -3.734375 2.484375 -3.863281 2.203125 -4.03125 C 1.929688 -4.207031 1.707031 -4.445312 1.53125 -4.75 C 1.363281 -5.0625 1.28125 -5.472656 1.28125 -5.984375 C 1.28125 -6.441406 1.363281 -6.820312 1.53125 -7.125 C 1.707031 -7.4375 1.925781 -7.691406 2.1875 -7.890625 C 2.457031 -8.085938 2.742188 -8.226562 3.046875 -8.3125 C 3.359375 -8.40625 3.640625 -8.453125 3.890625 -8.453125 C 4.035156 -8.453125 4.210938 -8.4375 4.421875 -8.40625 C 4.640625 -8.375 4.859375 -8.320312 5.078125 -8.25 C 5.296875 -8.175781 5.507812 -8.078125 5.71875 -7.953125 C 5.9375 -7.835938 6.128906 -7.695312 6.296875 -7.53125 L 6.296875 -5.609375 L 4.65625 -5.609375 L 4.65625 -6.5625 C 4.4375 -6.632812 4.21875 -6.671875 4 -6.671875 C 3.675781 -6.671875 3.441406 -6.597656 3.296875 -6.453125 C 3.148438 -6.316406 3.09375 -6.128906 3.125 -5.890625 C 3.15625 -5.710938 3.265625 -5.566406 3.453125 -5.453125 C 3.640625 -5.347656 3.863281 -5.242188 4.125 -5.140625 C 4.382812 -5.046875 4.660156 -4.929688 4.953125 -4.796875 C 5.242188 -4.660156 5.515625 -4.492188 5.765625 -4.296875 C 6.015625 -4.097656 6.21875 -3.847656 6.375 -3.546875 C 6.539062 -3.253906 6.625 -2.878906 6.625 -2.421875 C 6.625 -2.210938 6.582031 -1.960938 6.5 -1.671875 C 6.414062 -1.378906 6.269531 -1.09375 6.0625 -0.8125 C 5.863281 -0.53125 5.578125 -0.296875 5.203125 -0.109375 C 4.835938 0.078125 4.363281 0.171875 3.78125 0.171875 C 3.238281 0.171875 2.71875 0.101562 2.21875 -0.03125 C 1.71875 -0.164062 1.320312 -0.394531 1.03125 -0.71875 L 1.03125 -2.640625 Z M 2.65625 -2.640625" transform="translate(306.503 282.415)"/></g></g></g></svg>